<?xml version="1.0" encoding="utf-8"?>
<!-- Generator: Adobe Illustrator 27.5.0, SVG Export Plug-In . SVG Version: 6.00 Build 0)  -->
<svg version="1.1" id="Layer_1" xmlns="http://www.w3.org/2000/svg" xmlns:xlink="http://www.w3.org/1999/xlink" x="0px" y="0px"
	 viewBox="0 0 1122 631" style="enable-background:new 0 0 1122 631;" xml:space="preserve">
<linearGradient id="SVGID_1_" gradientUnits="userSpaceOnUse" x1="561.2836" y1="701.7975" x2="561.2836" y2="-349.114">
	<stop  offset="0" style="stop-color:#2B7EFF"/>
	<stop  offset="0.1209" style="stop-color:#515FBD"/>
	<stop  offset="0.2478" style="stop-color:#744380"/>
	<stop  offset="0.364" style="stop-color:#902C4F"/>
	<stop  offset="0.4655" style="stop-color:#A41C2B"/>
	<stop  offset="0.5483" style="stop-color:#B11216"/>
	<stop  offset="0.6021" style="stop-color:#B50E0E"/>
</linearGradient>
<rect x="0.284" y="0" style="fill:url(#SVGID_1_);" width="1122" height="631"/>
<g>
	<defs>
		<rect id="SVGID_00000019646477489485677570000001500443623140851381_" x="0.117" y="0" width="1122" height="631"/>
	</defs>
	<clipPath id="SVGID_00000165935833312753234790000014975260903700899723_">
		<use xlink:href="#SVGID_00000019646477489485677570000001500443623140851381_"  style="overflow:visible;"/>
	</clipPath>
	<g style="clip-path:url(#SVGID_00000165935833312753234790000014975260903700899723_);">
		<g>
			<path style="fill:#FF004E;" d="M1367.417,709.24c-26.436,0-52.312-3.79-77.045-11.295
				c-58.787-17.837-111.102-56.341-155.491-114.442c-50.572-66.193-90.642-157.827-119.097-272.358
				c-27.159-109.315-50.343-181.166-75.172-232.97c-26.417-55.116-54.949-87.282-89.794-101.228
				c-89.118-35.667-221.811,48.61-462.704,201.608c-35.881,22.79-72.984,46.355-113.184,71.596
				C164.281,319.628,64.703,363.592-21.038,380.82c-70.739,14.214-132.686,10.42-184.117-11.278
				c-25.306-10.676-48.171-25.765-67.961-44.847c-15.825-15.259-29.727-33.089-41.321-52.996
				c-19.74-33.894-26.032-62.505-26.093-62.79l3.027-0.651c0.06,0.281,6.279,28.502,25.806,61.992
				c11.454,19.645,25.182,37.236,40.801,52.283c19.509,18.795,42.047,33.657,66.987,44.173
				c50.849,21.439,112.182,25.164,182.298,11.07c85.363-17.159,184.58-60.981,294.896-130.249
				c40.193-25.237,77.292-48.8,113.17-71.588C628.208,22.396,761.374-62.188,851.969-25.928
				c35.609,14.252,64.664,46.907,91.435,102.764c24.924,52.001,48.173,124.034,75.385,233.561
				c28.352,114.117,68.238,205.37,118.552,271.225c43.987,57.575,95.777,95.714,153.93,113.359
				c27.093,8.22,55.572,11.929,84.674,11.029c26.931-0.835,54.462-5.612,81.827-14.197c49.351-15.482,98.195-43.715,137.534-79.497
				l2.083,2.291c-39.665,36.079-88.92,64.547-138.691,80.161c-27.634,8.669-55.444,13.493-82.659,14.337
				C1373.161,709.195,1370.284,709.24,1367.417,709.24z"/>
		</g>
		<g>
			<path style="fill:#FF004E;" d="M1360.341,710.546c-26.522,0.001-52.513-3.724-77.325-11.184
				c-59.184-17.794-111.957-56.158-156.851-114.026c-51.22-66.022-91.873-157.333-120.83-271.397
				C977.937,206.02,954.795,135.246,930.299,84.46c-26.171-54.259-54.305-85.856-88.538-99.439
				c-86.988-34.516-216.313,47.778-451.086,197.175c-39.07,24.863-79.471,50.572-123.727,78.345
				C157.038,329.525,58.354,373.079-26.359,389.994c-69.986,13.975-131.073,9.958-181.567-11.938
				c-25.095-10.882-47.68-26.261-67.128-45.709c-15.549-15.549-29.137-33.718-40.384-54.003
				c-19.149-34.533-24.958-63.681-25.015-63.971l3.04-0.591c0.056,0.287,5.798,29.043,24.743,63.168
				c11.112,20.017,24.527,37.941,39.873,53.273c19.166,19.15,41.419,34.292,66.143,45.008
				c49.904,21.629,110.372,25.572,179.724,11.719c84.337-16.846,182.658-60.259,292.235-129.033
				c44.248-27.768,84.644-53.475,123.711-78.335C624.644,29.639,754.439-52.958,842.903-17.857
				c34.999,13.887,63.656,45.971,90.185,100.972c24.59,50.98,47.797,121.934,75.247,230.062
				c28.852,113.649,69.318,204.578,120.275,270.261c44.491,57.35,96.741,95.355,155.296,112.959
				c51.63,15.523,108.492,14.679,164.433-2.437c48.691-14.897,96.531-42.225,134.707-76.95l2.084,2.291
				c-38.508,35.026-86.766,62.592-135.885,77.62C1419.577,705.999,1389.636,710.545,1360.341,710.546z"/>
		</g>
		<g>
			<path style="fill:#FF004E;" d="M1353.369,711.966c-26.563,0-52.662-3.712-77.62-11.145
				c-59.593-17.748-112.836-55.974-158.251-113.616c-51.889-65.859-93.142-156.859-122.614-270.472
				C967.25,210.207,944.15,140.506,919.985,90.735C894.057,37.332,866.32,6.301,832.693-6.921
				c-84.899-33.383-210.89,46.965-439.608,192.829c-42.182,26.901-85.799,54.717-134.118,85.025
				C149.811,339.411,52.031,382.556-31.656,399.169c-69.232,13.743-129.47,9.519-179.036-12.555
				c-24.892-11.086-47.202-26.755-66.31-46.572c-15.276-15.844-28.548-34.357-39.448-55.025
				c-18.555-35.186-23.875-64.884-23.926-65.18l3.05-0.532c0.051,0.292,5.313,29.599,23.671,64.373
				c10.768,20.397,23.871,38.659,38.945,54.28c18.825,19.508,40.799,34.932,65.313,45.843
				c48.971,21.798,108.579,25.945,177.169,12.324c83.309-16.544,180.728-59.547,289.549-127.816
				c48.309-30.301,91.922-58.115,134.098-85.012C505.367,110.628,595.37,53.23,666.243,19.079
				c74.905-36.093,126.589-45.001,167.583-28.882c34.394,13.524,62.657,45.04,88.945,99.185
				c24.258,49.963,47.422,119.841,75.109,226.574c29.364,113.195,70.427,203.812,122.05,269.333
				c45.011,57.131,97.734,95.003,156.702,112.565c51.221,15.255,107.345,14.656,162.302-1.731
				c48.007-14.314,94.834-40.743,131.854-74.416l2.084,2.291c-37.358,33.98-84.61,60.648-133.052,75.093
				C1411.042,707.671,1381.938,711.966,1353.369,711.966z"/>
		</g>
		<g>
			<path style="fill:#FF004E;" d="M1346.453,713.42c-26.59,0-52.782-3.698-77.878-11.1c-60.011-17.699-113.738-55.789-159.69-113.21
				c-52.581-65.706-94.453-156.407-124.453-269.582c-27.869-105.139-50.927-173.77-74.762-222.53
				c-25.687-52.549-53.032-83.015-86.056-95.878c-82.84-32.27-205.535,46.17-428.273,188.566
				c-43.108,27.559-91.968,58.795-144.358,91.638C142.6,349.288,45.731,392.025-36.933,408.346
				c-68.48,13.521-127.872,9.104-176.522-13.128c-24.697-11.286-46.736-27.246-65.506-47.437
				c-15.004-16.141-27.961-35.004-38.511-56.065c-17.958-35.85-22.781-66.112-22.828-66.414l3.06-0.474
				c0.046,0.298,4.818,30.169,22.589,65.605c10.423,20.784,23.214,39.39,38.018,55.302c18.486,19.87,40.186,35.576,64.498,46.68
				c48.048,21.948,106.804,26.282,174.632,12.886C44.781,389.05,141.289,346.456,249.339,278.7
				c52.38-32.837,101.232-64.068,144.335-91.624C504.715,116.089,592.421,60.019,661.438,26.657
				C734.352-8.588,784.717-17.355,824.74-1.765c33.793,13.162,61.664,44.113,87.714,97.403
				c23.927,48.95,47.05,117.755,74.973,223.098c29.888,112.756,71.566,203.072,123.877,268.44
				c45.548,56.917,98.757,94.659,158.147,112.175c50.792,14.979,106.154,14.615,160.106-1.052
				c47.298-13.735,93.102-39.269,128.974-71.897l2.083,2.291c-36.215,32.94-82.452,58.716-130.194,72.58
				C1402.541,709.368,1374.279,713.419,1346.453,713.42z"/>
		</g>
		<g>
			<path style="fill:#FF004E;" d="M1339.593,714.908c-26.599,0-52.872-3.681-78.094-11.046
				c-91.234-26.64-215.174-114.458-287.516-381.538c-28.104-103.756-51.119-171.32-74.626-219.074
				c-25.448-51.697-52.403-81.601-84.83-94.107c-80.808-31.17-200.25,45.393-417.075,184.383
				c-45.925,29.438-97.977,62.805-154.449,98.188c-107.599,67.442-203.55,109.771-285.191,125.81
				c-67.734,13.309-126.286,8.712-174.031-13.659c-24.508-11.484-46.281-27.735-64.713-48.304
				c-14.733-16.441-27.374-35.658-37.572-57.119c-17.357-36.527-21.676-67.368-21.718-67.675l3.069-0.416
				c0.041,0.303,4.316,30.754,21.495,66.865c10.075,21.178,22.553,40.134,37.088,56.341c18.149,20.236,39.579,36.223,63.696,47.518
				c47.137,22.077,105.045,26.586,172.116,13.405c81.262-15.971,176.852-58.158,284.117-125.39
				c56.459-35.375,108.504-68.737,154.422-98.172c108.16-69.334,193.592-124.098,260.778-156.687
				C727.513-0.184,776.578-8.813,815.641,6.254c33.197,12.804,60.68,43.191,86.493,95.629
				c23.599,47.939,46.679,115.677,74.837,219.632c71.967,265.694,194.921,352.957,285.395,379.376
				c50.333,14.697,104.913,14.559,157.84-0.399c46.564-13.16,91.335-37.805,126.065-69.395l2.084,2.291
				c-35.078,31.906-80.29,56.796-127.306,70.084C1394.071,711.095,1366.663,714.908,1339.593,714.908z"/>
		</g>
		<g>
			<path style="fill:#FF004E;" d="M1332.789,716.433c-26.59,0-52.927-3.662-78.264-10.984
				c-92.092-26.616-217.332-114.204-290.993-380.33c-28.336-102.375-51.31-168.877-74.49-215.628
				c-25.211-50.847-51.78-80.19-83.612-92.342c-37.256-14.224-84.281-5.761-152.47,27.439
				C587.746,76.34,504.632,129.777,399.406,197.43c-48.665,31.288-103.823,66.75-164.385,104.676
				c-106.799,66.91-201.829,108.832-282.45,124.601c-66.985,13.102-124.707,8.342-171.559-14.15
				c-24.326-11.678-45.836-28.222-63.932-49.172c-14.463-16.744-26.787-36.321-36.629-58.189
				c-16.751-37.216-20.557-68.65-20.594-68.964l3.076-0.358c0.036,0.309,3.806,31.354,20.388,68.152
				c9.724,21.58,21.889,40.891,36.156,57.395c17.812,20.605,38.976,36.875,62.905,48.357
				c46.238,22.187,103.31,26.858,169.622,13.884c80.242-15.699,174.91-57.48,281.375-124.181
				c60.547-37.917,115.696-73.374,164.354-104.657c105.313-67.708,188.494-121.188,253.874-153.02
				C720.629,8.197,768.411-0.299,806.534,14.256c32.605,12.448,59.704,42.272,85.283,93.86
				c23.271,46.934,46.31,113.605,74.701,216.177c73.279,264.746,197.534,351.784,288.868,378.181
				c49.848,14.406,103.621,14.485,155.501,0.225c45.805-12.589,89.532-36.351,123.127-66.908l2.083,2.291
				c-33.949,30.879-78.124,54.888-124.39,67.604C1385.635,712.851,1359.088,716.433,1332.789,716.433z"/>
		</g>
		<g>
			<path style="fill:#FF004E;" d="M1326.042,717.996c-26.563,0-52.944-3.639-78.383-10.914
				c-61.327-17.537-116.591-55.228-164.257-112.026c-54.807-65.307-98.653-155.187-130.32-267.142
				c-28.568-100.999-51.5-166.442-74.354-212.193c-24.977-50-51.162-78.783-82.406-90.584
				c-36.332-13.721-82.095-5.39-148.384,27.017c-63.435,31.01-144.322,83.184-246.729,149.238
				c-51.329,33.107-109.505,70.632-174.17,111.106C121.053,378.868,26.949,420.384-52.656,435.892
				c-66.245,12.906-123.141,7.992-169.111-14.601c-24.15-11.869-45.4-28.705-63.16-50.04c-14.193-17.05-26.198-36.992-35.682-59.274
				c-16.14-37.918-19.424-69.959-19.456-70.279l3.082-0.302c0.031,0.316,3.286,31.969,19.266,69.468
				c9.37,21.99,21.22,41.661,35.22,58.466c17.476,20.978,38.377,37.53,62.123,49.196c45.35,22.28,101.587,27.1,167.15,14.323
				c79.226-15.438,172.967-56.813,278.62-122.975c64.647-40.463,122.815-77.982,174.134-111.084
				c102.494-66.11,183.45-118.327,247.048-149.418C713.7,16.558,760.222,8.192,797.416,22.24
				c32.018,12.093,58.735,41.358,84.082,92.098c22.945,45.932,45.941,111.542,74.564,212.734
				c31.546,111.532,75.188,201.025,129.713,265.995c47.261,56.316,102.013,93.675,162.735,111.039
				c49.337,14.108,102.273,14.393,153.087,0.821c45.017-12.023,87.69-34.908,120.157-64.44l2.083,2.291
				c-32.826,29.858-75.955,52.993-121.442,65.141C1377.236,714.638,1351.555,717.996,1326.042,717.996z"/>
		</g>
		<g>
			<path style="fill:#FF004E;" d="M1319.349,719.599c-26.511,0-52.92-3.613-78.445-10.833
				c-61.785-17.477-117.591-55.039-165.866-111.643c-55.604-65.196-100.152-154.829-132.405-266.413
				c-28.798-99.626-51.688-164.013-74.219-208.77c-24.744-49.154-50.549-77.381-81.208-88.833
				c-35.42-13.23-79.943-5.023-144.363,26.606c-61.678,30.284-140.364,81.215-239.984,145.697
				c-53.915,34.898-115.023,74.453-183.803,117.479C113.895,388.713,20.722,429.825-57.872,445.081
				c-65.505,12.715-121.585,7.664-166.685-15.012c-23.98-12.057-44.973-29.186-62.397-50.911
				c-13.922-17.358-25.607-37.672-34.729-60.375c-15.522-38.631-18.276-71.294-18.302-71.619l3.087-0.247
				c0.026,0.322,2.757,32.598,18.128,70.809c9.013,22.407,20.546,42.443,34.278,59.552c17.141,21.355,37.782,38.189,61.35,50.035
				c44.476,22.355,99.889,27.308,164.703,14.723c78.214-15.187,171.025-56.157,275.853-121.774
				c68.759-43.013,129.858-82.561,183.763-117.453c99.705-64.537,178.459-115.513,240.302-145.877
				c65.247-32.036,110.524-40.281,146.811-26.727c31.435,11.742,57.774,40.448,82.891,90.342
				c22.62,44.934,45.574,109.486,74.427,209.302c32.132,111.158,76.47,200.405,131.787,265.263
				c47.872,56.129,103.168,93.365,164.353,110.672c48.793,13.802,100.867,14.281,150.592,1.386
				c44.203-11.463,85.811-33.479,117.157-61.991l2.084,2.291c-31.711,28.844-73.782,51.11-118.463,62.697
				C1368.869,716.457,1344.064,719.599,1319.349,719.599z"/>
		</g>
		<g>
			<path style="fill:#FF004E;" d="M1312.711,721.242c-26.436,0-52.851-3.584-78.444-10.743
				c-62.255-17.413-118.617-54.847-167.523-111.265c-56.43-65.097-101.703-154.501-134.562-265.728
				c-29.026-98.257-51.874-161.592-74.082-205.358c-24.513-48.31-49.941-75.984-80.021-87.09
				c-34.521-12.746-77.824-4.663-140.404,26.207c-59.949,29.571-136.458,79.282-233.32,142.218
				c-56.423,36.66-120.375,78.213-193.281,123.796C106.748,398.551,14.509,439.26-63.079,454.275
				c-64.767,12.533-120.041,7.356-164.285-15.387c-23.814-12.242-44.553-29.663-61.641-51.781
				c-13.652-17.67-25.013-38.358-33.769-61.489c-14.897-39.356-17.111-72.654-17.132-72.986l3.091-0.192
				c0.02,0.328,2.219,33.241,16.974,72.178c8.652,22.83,19.866,43.237,33.331,60.653c16.804,21.736,37.188,38.852,60.584,50.875
				c43.613,22.411,98.213,27.486,162.279,15.086c77.208-14.945,169.085-55.513,273.079-120.577
				c72.883-45.569,136.823-87.113,193.235-123.767C499.617,143.895,576.193,94.14,636.305,64.488
				c63.405-31.276,107.463-39.4,142.846-26.334c30.858,11.393,56.821,39.544,81.71,88.593
				c22.297,43.941,45.208,107.438,74.29,205.882c32.732,110.8,77.793,199.817,133.932,264.577
				c48.502,55.951,104.358,93.065,166.017,110.311c48.216,13.487,99.399,14.15,148.013,1.92
				c43.361-10.91,83.892-32.062,114.125-59.561l2.084,2.291c-30.603,27.836-71.606,49.241-115.453,60.273
				C1360.538,718.31,1336.615,721.242,1312.711,721.242z"/>
		</g>
		<g>
			<path style="fill:#FF004E;" d="M1306.128,722.928c-26.333,0-52.735-3.552-78.376-10.641
				c-62.731-17.345-119.667-54.654-169.226-110.893c-57.289-65.01-103.313-154.201-136.793-265.092
				C870.776,167.525,831.334,71.75,768.944,48.992c-33.636-12.268-75.737-4.307-136.507,25.819
				c-58.245,28.873-132.6,77.383-226.739,138.798c-58.853,38.396-125.559,81.915-202.605,130.062
				C99.611,408.384,8.308,448.692-68.28,463.474c-64.035,12.358-118.509,7.068-161.909-15.726
				c-23.655-12.423-44.141-30.138-60.891-52.652c-13.38-17.985-24.416-39.053-32.801-62.62
				c-14.266-40.093-15.929-74.04-15.944-74.378l3.094-0.139c0.015,0.335,1.669,33.899,15.802,73.573
				c8.286,23.262,19.179,44.044,32.375,61.769c16.468,22.12,36.596,39.518,59.826,51.715
				c42.763,22.452,96.555,27.637,159.881,15.412c76.208-14.712,167.15-54.879,270.298-119.384
				c77.021-48.131,143.713-91.641,202.555-130.029c94.224-61.472,168.648-110.025,227.055-138.98
				C692.653,41.503,735.505,33.5,770.005,46.083c30.285,11.047,55.876,38.644,80.539,86.852
				c22.272,43.533,44.448,104.086,74.153,202.472c33.35,110.463,79.159,199.265,136.151,263.939
				c49.154,55.78,105.586,92.775,167.729,109.956c47.609,13.164,97.868,14,145.345,2.421
				c42.491-10.364,81.932-30.661,111.057-57.152l2.083,2.291c-29.501,26.834-69.422,47.386-112.408,57.87
				C1352.24,720.199,1329.21,722.928,1306.128,722.928z"/>
		</g>
		<g>
			<path style="fill:#FF004E;" d="M1299.596,724.659c-26.204,0-52.562-3.515-78.23-10.527
				c-63.219-17.272-120.745-54.459-170.979-110.529c-58.181-64.938-104.982-153.93-139.104-264.505
				c-29.876-96.818-51.949-156.203-73.808-198.568c-24.058-46.63-48.741-73.202-77.675-83.624
				c-32.77-11.802-73.687-3.956-132.674,25.44c-56.565,28.189-128.795,75.518-220.241,135.438
				C345.68,257.89,276.31,303.345,195.11,354.062C92.483,418.211,2.117,458.12-73.477,472.678
				c-63.308,12.191-116.991,6.798-159.56-16.03c-23.499-12.601-43.734-30.609-60.145-53.523
				c-13.108-18.302-23.815-39.755-31.824-63.763c-13.626-40.842-14.728-75.452-14.738-75.796l3.095-0.086
				c0.01,0.341,1.109,34.571,14.611,74.994c7.916,23.7,18.485,44.863,31.412,62.901c16.13,22.506,36.004,40.188,59.071,52.554
				c41.928,22.476,94.921,27.76,157.509,15.704c75.215-14.488,165.22-54.255,267.514-118.198
				c81.173-50.699,150.528-96.145,211.719-136.24c91.531-59.977,163.829-107.35,220.557-135.62
				C685.55,49.771,727.217,41.88,760.849,53.994c29.716,10.703,54.939,37.75,79.379,85.117
				c21.947,42.536,44.082,102.072,74.015,199.075c33.989,110.145,80.571,198.749,138.451,263.352
				c49.83,55.618,106.855,92.495,169.489,109.607c46.963,12.832,96.269,13.829,142.584,2.888
				c41.591-9.825,79.93-29.275,107.956-54.766l2.083,2.291c-28.407,25.839-67.234,45.545-109.327,55.489
				C1343.981,722.124,1321.844,724.659,1299.596,724.659z"/>
		</g>
		<g>
			<path style="fill:#FF004E;" d="M1293.116,726.436c-26.043,0-52.333-3.474-78.003-10.401
				c-63.714-17.194-121.846-54.261-172.781-110.17c-59.109-64.88-106.716-153.692-141.499-263.97
				c-30.103-95.439-52.135-153.814-73.67-195.189c-23.834-45.793-48.148-71.818-76.518-81.903
				c-31.913-11.343-71.667-3.611-128.903,25.072c-54.911,27.518-125.04,73.686-213.827,132.137
				c-63.475,41.787-135.418,89.149-220.788,142.442C85.363,428.034-4.065,467.545-78.673,481.887
				c-62.584,12.032-115.486,6.548-157.236-16.299c-23.348-12.776-43.334-31.077-59.404-54.394
				c-12.833-18.622-23.208-40.464-30.838-64.921c-12.977-41.601-13.508-76.887-13.512-77.238l3.097-0.034
				c0.004,0.348,0.537,35.256,13.4,76.441c7.541,24.145,17.781,45.693,30.439,64.047c15.791,22.896,35.413,40.86,58.322,53.393
				c41.103,22.486,93.309,27.855,155.163,15.963c74.229-14.272,163.296-53.643,264.73-117.017
				c85.339-53.273,157.266-100.625,220.726-142.402c88.872-58.507,159.068-104.719,214.142-132.319
				c58.051-29.092,98.552-36.871,131.327-25.221c29.152,10.362,54.01,36.86,78.227,83.39
				c21.623,41.544,43.717,100.067,73.876,195.688c34.648,109.847,82.031,198.271,140.835,262.816
				c50.531,55.465,108.164,92.228,171.299,109.266c46.282,12.49,94.596,13.638,139.726,3.32
				c40.659-9.295,77.884-27.906,104.817-52.404l2.084,2.291c-27.32,24.85-65.04,43.72-106.211,53.132
				C1335.756,724.089,1314.519,726.435,1293.116,726.436z"/>
		</g>
		<g>
			<path style="fill:#FF004E;" d="M1286.682,728.261c-25.849,0.001-52.036-3.428-77.683-10.262
				c-30.457-8.116-60.205-20.993-88.417-38.275c-30.582-18.734-59.589-42.804-86.216-71.542
				c-60.074-64.837-108.517-153.488-143.983-263.491c-30.328-94.064-52.318-151.431-73.531-191.823
				c-23.612-44.959-47.562-70.439-75.37-80.189c-31.072-10.893-69.682-3.272-125.193,24.712
				c-53.283,26.86-121.339,71.887-207.5,128.892c-65.663,43.444-140.088,92.685-229.643,148.56
				C78.25,437.853-10.241,476.968-83.87,491.103c-61.866,11.876-113.995,6.312-154.94-16.537
				c-23.2-12.947-42.938-31.542-58.665-55.266c-12.558-18.944-22.597-41.18-29.84-66.092
				c-12.319-42.373-12.268-78.347-12.266-78.706l3.097,0.017c-0.002,0.354-0.045,35.955,12.169,77.913
				c7.16,24.597,17.07,46.536,29.456,65.207c15.449,23.289,34.82,41.536,57.575,54.231c40.291,22.479,91.717,27.926,152.846,16.188
				c73.249-14.065,161.38-53.04,261.945-115.842c89.52-55.854,163.927-105.083,229.574-148.516
				c86.247-57.062,154.369-102.133,207.815-129.075c56.324-28.393,95.682-36.064,127.611-24.869
				c59.556,20.88,97.518,108.649,150.824,273.983c35.327,109.57,83.543,197.832,143.307,262.336
				c26.434,28.53,55.221,52.42,85.563,71.006c27.956,17.126,57.428,29.885,87.596,37.924c45.556,12.138,92.849,13.424,136.766,3.716
				c39.697-8.776,75.794-26.556,101.641-50.067l2.083,2.291c-26.241,23.868-62.84,41.909-103.057,50.799
				C1327.568,726.093,1307.23,728.26,1286.682,728.261z"/>
		</g>
		<g>
			<path style="fill:#FF004E;" d="M1280.295,730.136c-25.617,0-51.674-3.378-77.263-10.108
				c-30.659-8.063-60.665-20.884-89.183-38.106c-30.948-18.69-60.338-42.701-87.352-71.365
				c-61.079-64.811-110.389-153.32-146.561-263.068C826.664,185.863,789.207,100.2,732.311,80.537
				c-30.239-10.451-67.728-2.939-121.546,24.36c-51.679,26.215-117.689,70.119-201.26,125.704
				c-67.771,45.076-144.584,96.166-238.34,154.633C71.144,447.668-16.412,486.39-89.069,500.326
				c-61.154,11.728-112.52,6.095-152.672-16.744c-23.057-13.115-42.547-32.002-57.927-56.137
				c-12.28-19.268-21.98-41.903-28.832-67.276c-11.653-43.155-11.007-79.832-10.999-80.197l3.096,0.067
				c-0.008,0.362-0.64,36.669,10.915,79.41c6.774,25.056,16.35,47.39,28.462,66.381c15.105,23.686,34.226,42.214,56.83,55.068
				c39.495,22.46,90.149,27.972,150.557,16.384c72.279-13.865,159.474-52.448,259.163-114.674
				c93.719-58.443,170.512-109.52,238.265-154.584c83.655-55.642,149.732-99.59,201.575-125.888
				c54.626-27.709,92.857-35.273,123.958-24.525c58.121,20.086,95.964,106.318,149.553,268.909
				c36.029,109.315,85.108,197.436,145.874,261.914c26.821,28.46,55.991,52.293,86.7,70.839
				c28.265,17.069,57.997,29.774,88.37,37.762c44.79,11.779,91.02,13.187,133.698,4.074c38.703-8.266,73.659-25.226,98.428-47.756
				l2.083,2.291c-25.169,22.893-60.635,40.115-99.865,48.493C1319.413,728.14,1299.983,730.136,1280.295,730.136z"/>
		</g>
		<g>
			<path style="fill:#FF004E;" d="M1273.948,732.063c-25.349,0.001-51.234-3.323-76.736-9.94
				c-30.859-8.006-61.126-20.769-89.961-37.933c-31.326-18.648-61.111-42.603-88.526-71.199
				c-62.126-64.802-112.338-153.189-149.24-262.706c-30.77-91.32-52.677-146.684-73.25-185.123
				c-23.173-43.297-46.403-67.697-73.105-76.787c-29.427-10.02-65.809-2.612-117.96,24.017
				c-50.104,25.582-114.095,68.384-195.11,122.573c-66.341,44.373-148.904,99.597-246.878,160.662
				C64.043,457.48-22.578,495.812-94.272,509.555c-60.447,11.586-111.059,5.894-150.431-16.922
				c-22.917-13.28-42.159-32.459-57.191-57.006c-12-19.595-21.357-42.633-27.811-68.473c-10.976-43.948-9.723-81.34-9.709-81.713
				l3.094,0.116c-0.014,0.369-1.247,37.395,9.641,80.931c6.382,25.522,15.619,48.255,27.455,67.57
				c14.759,24.085,33.63,42.894,56.087,55.904c25.669,14.87,56.261,22.329,91.359,22.33c17.834,0,36.826-1.924,56.936-5.78
				c71.316-13.674,157.577-51.865,256.387-113.513c97.932-61.039,180.472-116.248,246.794-160.608
				c81.1-54.245,145.158-97.092,195.423-122.757c52.959-27.04,90.081-34.502,120.367-24.191
				c27.492,9.359,51.272,34.226,74.837,78.258c20.659,38.599,42.626,94.104,73.455,185.595
				c36.755,109.083,86.732,197.082,148.541,261.552c27.223,28.395,56.788,52.175,87.875,70.681
				c28.583,17.015,58.579,29.664,89.155,37.597c43.977,11.411,89.111,12.93,130.519,4.393c37.676-7.767,71.477-23.917,95.177-45.474
				l2.084,2.291c-24.105,21.925-58.425,38.338-96.636,46.216C1311.295,730.23,1292.768,732.062,1273.948,732.063z"/>
		</g>
		<g>
			<path style="fill:#FF004E;" d="M1267.639,734.044c-25.037,0-50.713-3.263-76.089-9.755
				c-31.058-7.946-61.591-20.649-90.749-37.757c-31.716-18.607-61.909-42.51-89.741-71.043
				c-63.218-64.811-114.366-153.098-152.024-262.408c-31.401-91.15-52.582-143.818-73.108-181.791
				c-22.956-42.469-45.83-66.333-71.988-75.099c-28.626-9.595-63.921-2.291-114.438,23.681
				c-48.553,24.962-110.553,66.68-189.05,119.496C342.268,285.248,257.408,342.346,155.2,406.017
				C56.946,467.29-28.742,505.233-99.483,518.792c-59.744,11.452-109.612,5.707-148.22-17.071
				c-22.78-13.44-41.774-32.912-56.456-57.875c-11.718-19.923-20.727-43.368-26.777-69.683
				c-10.289-44.751-8.418-82.872-8.398-83.251l3.093,0.163c-0.02,0.376-1.866,38.134,8.342,82.477
				c5.984,25.994,14.878,49.131,26.436,68.771c14.411,24.487,33.032,43.576,55.345,56.738c25.243,14.89,55.452,22.359,90.211,22.36
				c17.483,0,36.113-1.888,55.851-5.672c70.363-13.489,155.692-51.292,253.616-112.359
				c102.163-63.643,186.998-120.724,255.163-166.59c78.58-52.873,140.648-94.635,189.362-119.681
				c51.32-26.385,87.355-33.744,116.838-23.863c27.317,9.155,50.055,32.768,73.728,76.563
				c20.611,38.131,41.851,90.934,73.31,182.255c93.585,271.653,247.147,347.928,330.355,369.216
				c43.118,11.032,87.111,12.648,127.224,4.672c36.615-7.28,69.247-22.629,91.886-43.221l2.083,2.291
				c-23.049,20.965-56.207,36.579-93.366,43.967C1303.209,732.366,1285.588,734.044,1267.639,734.044z"/>
		</g>
		<g>
			<path style="fill:#FF004E;" d="M1261.362,736.081c-24.683,0.001-50.105-3.196-75.314-9.553
				c-31.253-7.881-62.053-20.523-91.545-37.575c-32.116-18.569-62.732-42.423-90.995-70.899
				c-64.358-64.84-116.48-153.049-154.921-262.176c-55.211-156.738-90.818-234.408-143.844-251.891
				c-27.843-9.178-62.068-1.977-110.977,23.352c-47.028,24.354-107.068,65.007-183.081,116.474
				c-69.951,47.363-157.006,106.307-263.467,172.594c-97.365,60.689-182.123,98.246-251.919,111.627
				c-19.566,3.751-38.053,5.624-55.392,5.625c-34.988,0.002-65.333-7.621-90.644-22.818c-22.646-13.597-41.393-33.361-55.719-58.742
				c-11.433-20.254-20.089-44.11-25.73-70.905c-9.591-45.565-7.089-84.425-7.062-84.813l3.089,0.211
				c-0.026,0.384-2.498,38.886,7.021,84.046c5.579,26.471,14.127,50.017,25.404,69.985c14.059,24.891,32.43,44.261,54.603,57.571
				c37.182,22.32,85.582,27.972,143.859,16.798c69.418-13.311,153.818-50.728,250.854-111.212
				c106.412-66.256,193.44-125.182,263.369-172.53c76.097-51.524,136.203-92.222,183.392-116.66
				c49.709-25.743,84.674-33.005,113.371-23.543c54.255,17.887,90.242,96.092,145.796,253.802
				c38.286,108.69,90.165,196.511,154.197,261.023c28.071,28.282,58.468,51.968,90.347,70.4
				c29.244,16.908,59.777,29.442,90.753,37.253c42.211,10.644,85.022,12.343,123.809,4.911c36.035-6.904,66.657-21.081,88.556-41
				l2.083,2.291c-22.321,20.302-53.461,34.739-90.056,41.751C1295.158,734.551,1278.435,736.081,1261.362,736.081z"/>
		</g>
		<g>
			<path style="fill:#FF004E;" d="M1255.111,738.177c-24.279,0-49.404-3.125-74.399-9.334
				c-65.845-16.357-129.691-53.756-184.639-108.154c-65.547-64.891-118.683-153.045-157.935-262.012
				C782.683,204.723,747.2,128.507,695.536,111.764c-27.067-8.771-60.247-1.669-107.579,23.03
				c-45.529,23.758-103.638,63.365-177.206,113.507C339.118,297.125,249.967,357.889,139.235,426.8
				C42.764,486.904-41.068,524.077-109.93,537.287c-58.357,11.195-106.766,5.378-143.882-17.291
				c-22.514-13.75-41.013-33.806-54.981-59.608c-11.145-20.587-19.444-44.858-24.668-72.138
				c-8.883-46.389-5.737-86.002-5.704-86.397l3.086,0.256c-0.033,0.391-3.143,39.65,5.674,85.637
				c5.168,26.955,13.364,50.914,24.358,71.211c13.704,25.298,31.825,44.948,53.859,58.403
				c36.438,22.249,84.109,27.93,141.684,16.884c68.485-13.139,151.958-50.173,248.102-110.073
				c110.678-68.877,199.799-129.621,271.409-178.429c73.651-50.2,131.826-89.851,177.517-113.694
				c48.13-25.116,82.045-32.28,109.966-23.23c26.23,8.501,48.294,31.076,71.541,73.2c19.97,36.186,41.125,87.063,73.02,175.609
				c39.094,108.531,91.984,196.297,157.199,260.861c54.552,54.006,117.904,91.127,183.207,107.35
				c41.247,10.246,82.834,12.012,120.268,5.107c34.889-6.436,64.346-19.857,85.185-38.813l2.084,2.291
				c-21.267,19.344-51.25,33.027-86.707,39.568C1287.134,736.785,1271.311,738.177,1255.111,738.177z"/>
		</g>
		<g>
			<path style="fill:#FF004E;" d="M1248.879,740.333c-23.825,0-48.6-3.047-73.334-9.097
				c-66.345-16.227-130.933-53.518-186.781-107.841c-66.787-64.964-120.981-153.087-161.073-261.921
				c-23.435-63.616-48.458-128.466-72.67-171.864c-22.624-40.552-43.812-62.169-68.699-70.091
				c-26.309-8.373-58.458-1.369-104.243,22.713c-44.058,23.174-100.265,61.752-171.425,110.593
				c-73.235,50.266-164.38,112.823-279.4,184.366C35.676,496.709-47.233,533.502-115.17,546.547
				c-57.674,11.074-105.368,5.232-141.757-17.364c-22.386-13.9-40.636-34.247-54.242-60.473
				c-10.854-20.922-18.792-45.612-23.592-73.384c-8.162-47.222-4.36-87.6-4.321-88.003l3.081,0.302
				c-0.039,0.399-3.801,40.427,4.304,87.251c4.751,27.445,12.589,51.822,23.298,72.45c13.345,25.708,31.215,45.636,53.114,59.231
				c23.956,14.873,52.98,22.334,86.661,22.335c16.522,0,34.158-1.794,52.879-5.389c67.56-12.974,150.112-49.628,245.361-108.942
				c114.962-71.506,206.075-134.042,279.284-184.29c71.244-48.898,127.516-87.521,171.736-110.781
				c46.578-24.5,79.463-31.569,106.624-22.924c25.695,8.179,47.426,30.24,70.464,71.532
				c24.315,43.584,49.393,108.569,72.872,172.303c39.931,108.397,93.873,196.134,160.326,260.772
				c55.453,53.938,119.549,90.957,185.358,107.053c40.232,9.841,80.55,11.659,116.597,5.26
				c33.708-5.983,61.985-18.661,81.776-36.662l2.083,2.291c-20.224,18.395-49.034,31.335-83.318,37.42
				C1279.142,739.071,1264.207,740.333,1248.879,740.333z"/>
		</g>
		<g>
			<path style="fill:#FF004E;" d="M1242.658,742.551c-23.32,0-47.69-2.962-72.109-8.84
				c-66.837-16.087-132.179-53.272-188.965-107.535c-68.084-65.06-123.376-153.178-164.343-261.905
				c-27.26-72.351-50.025-128.708-72.521-168.58c-22.412-39.724-43.268-60.832-67.624-68.44
				c-25.562-7.986-56.703-1.076-100.969,22.403c-42.613,22.602-96.947,60.17-165.739,107.732
				C335.635,309.073,242.6,373.398,123.272,447.582C28.591,506.514-53.4,542.928-120.422,555.813
				c-56.998,10.958-103.986,5.1-139.663-17.413c-22.26-14.047-40.259-34.682-53.499-61.335c-10.56-21.258-18.13-46.37-22.501-74.639
				c-7.431-48.065-2.959-89.22-2.914-89.63l3.078,0.345c-0.046,0.407-4.473,41.216,2.908,88.887
				c4.326,27.941,11.803,52.738,22.223,73.7c12.983,26.12,30.602,46.326,52.367,60.058c34.99,22.076,81.226,27.789,137.425,16.984
				c66.645-12.815,148.28-49.091,242.634-107.819c119.265-74.145,212.265-138.446,286.992-190.112
				c68.875-47.62,123.276-85.234,166.049-107.921c45.055-23.896,76.926-30.874,103.344-22.623
				c50.537,15.786,84.687,86.453,142.119,238.884c40.801,108.289,95.838,196.021,163.584,260.758
				c56.39,53.886,121.244,90.804,187.55,106.763c39.158,9.425,78.162,11.281,112.793,5.369
				c32.491-5.546,59.576-17.492,78.328-34.549l2.084,2.291c-19.19,17.455-46.815,29.665-79.89,35.311
				C1271.174,741.412,1257.118,742.551,1242.658,742.551z"/>
		</g>
		<g>
			<path style="fill:#FF004E;" d="M1236.44,744.834c-22.759,0-46.664-2.871-70.711-8.563
				c-67.314-15.933-133.424-53.015-191.184-107.235c-69.439-65.182-125.878-153.321-167.751-261.967
				c-57.28-148.623-90.933-217.408-138.929-232.107c-24.832-7.606-54.982-0.789-97.759,22.098
				c-41.195,22.04-93.69,58.617-160.152,104.925c-76.189,53.086-171.01,119.153-294.664,195.987
				c-93.784,58.345-174.861,94.384-240.978,107.116c-56.324,10.847-102.619,4.979-137.597-17.442
				c-22.136-14.189-39.885-35.114-52.754-62.195c-10.263-21.596-17.461-47.135-21.394-75.906
				c-6.687-48.918-1.534-90.86-1.481-91.279l3.072,0.388c-0.053,0.415-5.158,42.017,1.486,90.544
				c3.894,28.443,11.004,53.664,21.131,74.963c12.617,26.534,29.983,47.018,51.617,60.882
				c34.287,21.974,79.822,27.693,135.34,17.001c65.743-12.662,146.463-48.562,239.921-106.704
				C237.24,378.551,332.024,312.51,408.184,259.445c66.545-46.366,119.107-82.989,160.461-105.115
				c43.564-23.308,74.446-30.194,100.126-22.328c49.229,15.077,83.257,84.359,140.912,233.954
				c41.704,108.208,97.884,195.962,166.98,260.823c57.367,53.85,122.991,90.67,189.778,106.479
				c38.021,9,75.664,10.878,108.853,5.434c31.237-5.124,57.117-16.355,74.841-32.476l2.084,2.291
				c-18.168,16.525-44.594,28.02-76.423,33.241C1263.232,743.809,1250.039,744.834,1236.44,744.834z"/>
		</g>
		<g>
			<path style="fill:#FF004E;" d="M1230.215,747.184c-22.142,0-45.52-2.772-69.132-8.266
				c-67.769-15.766-134.657-52.745-193.434-106.94C896.795,566.646,839.16,478.46,796.346,369.868
				c-27.606-70.016-50.451-124.368-72.216-162.047c-21.995-38.078-42.198-58.177-65.506-65.169
				c-24.114-7.233-53.294-0.511-94.611,21.797c-39.803,21.491-90.491,57.095-154.663,102.171
				c-77.541,54.466-174.042,122.251-302.042,201.744c-92.887,57.758-173.055,93.425-238.278,106.01
				c-18.019,3.477-34.993,5.212-50.863,5.213c-33.151,0.001-61.508-7.57-84.698-22.662c-22.014-14.327-39.51-35.541-52.005-63.053
				c-9.962-21.936-16.783-47.904-20.271-77.183c-5.931-49.779-0.081-92.521-0.022-92.947l3.066,0.431
				c-0.059,0.423-5.857,42.829,0.039,92.222c3.456,28.95,10.193,54.6,20.025,76.236c12.247,26.95,29.36,47.71,50.864,61.704
				c33.596,21.862,78.44,27.582,133.285,16.998c64.848-12.513,144.662-48.042,237.223-105.597
				c127.926-79.448,224.387-147.205,301.896-201.648c64.256-45.134,115.009-80.784,154.973-102.361
				c42.1-22.731,72.006-29.529,96.972-22.038c24.122,7.236,44.877,27.772,67.298,66.586c21.86,37.844,44.758,92.315,72.414,162.46
				c42.642,108.154,100.015,195.957,170.522,260.97c58.383,53.832,124.788,90.556,192.036,106.201
				c36.823,8.567,73.055,10.453,104.774,5.453c29.949-4.72,54.61-15.248,71.319-30.445l2.083,2.291
				c-17.157,15.606-42.372,26.399-72.92,31.213C1255.307,746.264,1242.965,747.184,1230.215,747.184z"/>
		</g>
		<g>
			<path style="fill:#FF004E;" d="M1223.971,749.603c-21.463,0-44.252-2.667-67.361-7.948
				c-47.556-10.866-120.112-38.19-195.705-106.653c-72.333-65.51-131.214-153.773-175.008-262.336
				c-27.773-68.849-50.656-122.202-72.059-158.8c-21.789-37.259-41.671-56.859-64.464-63.549
				c-23.409-6.872-51.638-0.24-91.527,21.502c-38.44,20.952-87.352,55.601-149.276,99.469
				C329.767,327.114,231.69,396.592,99.325,478.755c-171.479,106.576-295.678,136.006-369.148,87.473
				c-21.893-14.462-39.136-35.963-51.251-63.907c-9.658-22.277-16.095-48.678-19.132-78.47c-5.163-50.649,1.396-94.202,1.463-94.636
				l3.06,0.471c-0.066,0.431-6.57,43.653-1.435,93.921c3.009,29.463,9.369,55.544,18.901,77.519
				c11.872,27.368,28.73,48.403,50.107,62.522c32.918,21.742,77.079,27.452,131.26,16.976
				c63.966-12.37,142.877-47.529,234.541-104.5c132.284-82.113,230.319-151.561,309.091-207.363
				c62.007-43.926,110.984-78.621,149.584-99.66c40.667-22.166,69.621-28.875,93.881-21.755
				c23.608,6.93,44.045,26.964,66.264,64.958c21.498,36.76,44.433,90.229,72.257,159.204
				c43.617,108.126,102.232,196.006,174.215,261.2c75.096,68.013,147.119,95.145,194.315,105.929
				c35.564,8.127,70.335,10.003,100.557,5.428c28.625-4.333,52.057-14.174,67.763-28.46l2.083,2.291
				c-16.159,14.698-40.151,24.806-69.382,29.231C1247.395,748.781,1235.887,749.603,1223.971,749.603z"/>
		</g>
		<g>
			<path style="fill:#FF004E;" d="M1217.769,752.099c-20.537,0-42.653-2.498-65.463-7.614
				c-47.829-10.727-121.003-37.889-197.987-106.371c-73.876-65.72-134.057-154.088-178.869-262.649
				c-59-142.932-90.843-204.742-135.333-217.505c-22.716-6.517-50.015,0.023-88.506,21.212
				c-37.104,20.424-84.273,54.138-143.991,96.819C331.855,330.143,228.09,404.306,91.343,489.146
				C-25.489,561.723-119.97,598.143-190.987,598.144c-32.271,0-59.696-7.52-82.175-22.585
				c-21.774-14.593-38.762-36.381-50.493-64.759c-9.35-22.62-15.398-49.457-17.976-79.766c-4.383-51.528,2.899-95.903,2.973-96.345
				l3.054,0.511c-0.074,0.439-7.296,44.487-2.936,95.639c2.556,29.981,8.531,56.498,17.761,78.814
				c11.493,27.788,28.096,49.098,49.347,63.338c32.253,21.613,75.745,27.312,129.265,16.935
				c63.094-12.232,141.108-47.024,231.877-103.41c136.662-84.788,236.161-155.902,316.11-213.044
				c59.801-42.741,107.035-76.5,144.299-97.013c39.264-21.613,67.282-28.238,90.853-21.476
				c23.102,6.628,43.224,26.162,65.244,63.339c21.208,35.807,43.31,86.222,72.097,155.961
				C822.943,482.408,882.854,570.394,956.378,635.8c76.488,68.042,149.133,95.016,196.607,105.663
				c34.237,7.679,67.503,9.532,96.2,5.359c27.268-3.965,49.461-13.136,64.177-26.522l2.084,2.291
				C1294.176,741.937,1259.187,752.098,1217.769,752.099z"/>
		</g>
		<g>
			<path style="fill:#FF004E;" d="M1211.256,754.63c-19.717,0-41.032-2.369-63.091-7.221
				c-48.071-10.573-121.837-37.563-200.268-106.096c-75.49-65.963-137.024-154.466-182.895-263.049
				c-28.9-68.408-50.98-117.755-71.737-152.342c-21.384-35.633-40.633-54.243-62.414-60.343
				c-22.041-6.173-48.426,0.28-85.549,20.926c-35.795,19.908-81.254,52.702-138.809,94.222
				C329.693,336.131,224.509,412.01,83.361,499.538c-115.659,71.813-209.015,107.849-278.965,107.851
				c-31.877,0.001-58.89-7.482-80.945-22.472c-21.657-14.72-38.389-36.794-49.73-65.609c-9.038-22.964-14.692-50.24-16.803-81.072
				c-3.59-52.415,4.429-97.622,4.51-98.072l3.047,0.551c-0.081,0.448-8.037,45.333-4.463,97.377
				c2.095,30.504,7.681,57.459,16.604,80.118c11.11,28.21,27.455,49.793,48.581,64.15c21.406,14.548,47.972,21.847,79.311,21.848
				c14.927,0.001,30.931-1.655,47.988-4.97c62.233-12.099,139.358-46.527,229.233-102.33
				c141.057-87.471,246.19-163.313,322.954-218.691c57.636-41.579,103.161-74.42,139.115-94.417
				c37.892-21.074,65.003-27.613,87.889-21.201c22.601,6.33,42.412,25.368,64.234,61.731
				c20.851,34.744,42.983,84.199,71.934,152.731c45.686,108.147,106.947,196.271,182.08,261.922
				c77.937,68.101,151.178,94.908,198.896,105.403c65.047,14.308,123.394,6.878,152.271-19.388l2.084,2.291
				C1283.472,745.218,1250.543,754.629,1211.256,754.63z"/>
		</g>
		<g>
			<path style="fill:#FF004E;" d="M1204.686,757.237c-18.84,0-39.285-2.234-60.509-6.809c-32.442-6.993-65.536-18.97-98.363-35.598
				c-36.191-18.333-71.239-41.961-104.17-70.228c-77.173-66.242-140.119-154.909-187.09-263.538
				c-29.059-67.203-51.167-115.593-71.571-149.133c-21.184-34.824-40.122-52.945-61.407-58.757
				c-21.378-5.839-46.872,0.529-82.655,20.644c-34.514,19.402-78.299,51.297-133.731,91.677
				c-77.754,56.64-184.242,134.212-329.812,224.435c-114.5,71.058-206.746,106.716-275.648,106.718
				c-31.48,0.001-58.082-7.44-79.716-22.349c-21.541-14.844-38.014-37.203-48.962-66.455c-8.723-23.309-13.976-51.028-15.613-82.386
				c-2.784-53.311,5.985-99.36,6.074-99.819l3.04,0.589c-0.088,0.456-8.792,46.189-6.018,99.133
				c1.625,31.032,6.817,58.43,15.43,81.432c10.722,28.633,26.808,50.488,47.811,64.959c30.964,21.334,73.142,26.988,125.364,16.804
				c61.383-11.969,137.625-46.037,226.607-101.258c145.472-90.163,251.906-167.695,329.62-224.306
				c55.515-40.44,99.364-72.382,134.038-91.873c36.55-20.546,62.762-27.002,84.988-20.932
				c45.329,12.377,77.42,76.473,135.004,209.648c46.783,108.195,109.452,196.485,186.264,262.418
				c32.742,28.105,67.583,51.594,103.553,69.815c32.59,16.509,65.432,28.396,97.616,35.334
				c62.105,13.387,117.287,6.6,144.014-17.709l2.083,2.291C1272.713,748.549,1241.826,757.235,1204.686,757.237z"/>
		</g>
		<g>
			<path style="fill:#FF004E;" d="M1198.546,760.011c-18.149,0-37.872-2.175-58.219-6.469
				c-32.437-6.846-65.726-18.731-98.943-35.324c-36.676-18.322-72.279-41.954-105.82-70.239
				c-37.15-31.328-71.636-68.298-102.498-109.88c-34.009-45.823-63.939-97.715-88.959-154.237
				c-57.318-129.49-89.008-191.741-131.813-203.12c-20.733-5.512-45.352,0.77-79.827,20.367
				c-33.262,18.907-75.405,49.921-128.761,89.184c-78.623,57.859-186.301,137.099-336.31,230.027
				c-113.354,70.312-204.505,105.594-272.377,105.597c-31.079,0.001-57.272-7.395-78.491-22.213
				c-21.426-14.963-37.639-37.605-48.187-67.298c-8.403-23.655-13.25-51.818-14.406-83.709
				c-1.965-54.214,7.567-101.115,7.664-101.583l3.032,0.626c-0.096,0.464-9.56,47.055-7.599,100.908
				c1.149,31.564,5.939,59.407,14.238,82.755c10.329,29.058,26.154,51.184,47.035,65.765
				c30.337,21.182,71.874,26.806,123.458,16.716c60.545-11.844,135.91-45.555,224.001-100.196
				c149.904-92.863,257.525-172.061,336.106-229.888c53.438-39.324,95.646-70.385,129.066-89.383
				c35.237-20.03,60.573-26.404,82.152-20.667c44.099,11.723,76.122,74.447,133.85,204.859
				c24.926,56.312,54.741,108.006,88.613,153.645c30.72,41.391,65.04,78.184,102.008,109.359
				c33.354,28.127,68.751,51.623,105.207,69.836c32.981,16.476,66.019,28.273,98.199,35.065c29.862,6.303,58.332,7.993,82.328,4.892
				c23.016-2.975,41.444-10.243,53.29-21.018l2.084,2.291c-12.318,11.204-31.328,18.741-54.976,21.799
				C1215.753,759.502,1207.333,760.011,1198.546,760.011z"/>
		</g>
		<g>
			<path style="fill:#FF004E;" d="M1192.085,762.841c-17,0-35.707-2.004-55.489-6.088
				c-68.582-14.159-142.074-51.558-206.937-105.306c-37.938-31.437-73.186-68.495-104.765-110.144
				c-34.883-46.006-65.578-98.035-91.233-154.642c-57.441-126.739-89.055-187.625-130.657-198.376
				c-20.102-5.193-43.866,1.003-77.062,20.093c-32.039,18.423-72.576,48.574-123.898,86.744
				C322.634,354.184,213.881,435.07,59.415,530.711c-112.222,69.574-202.292,104.486-269.152,104.488
				c-30.677,0.001-56.464-7.347-77.271-22.068c-21.313-15.079-37.263-38.003-47.407-68.136
				c-8.08-24.002-12.515-52.614-13.181-85.041c-1.133-55.125,9.177-102.888,9.281-103.364l3.025,0.662
				c-0.104,0.473-10.342,47.931-9.208,102.7c0.664,32.102,5.048,60.392,13.029,84.087c9.932,29.484,25.493,51.881,46.254,66.567
				c29.724,21.028,70.63,26.616,121.582,16.615c59.718-11.723,134.213-45.079,221.418-99.143
				c154.354-95.572,263.047-176.413,342.41-235.44c51.404-38.232,92.006-68.43,124.202-86.944
				c33.956-19.526,58.437-25.819,79.381-20.407c21.136,5.462,40.036,23.034,61.279,56.975
				c19.888,31.776,41.249,76.539,71.425,143.12c25.56,56.397,56.137,108.227,90.88,154.049
				c31.436,41.46,66.518,78.345,104.273,109.63c64.481,53.431,137.493,90.6,205.588,104.658c28.275,5.838,55.061,7.447,77.463,4.656
				c21.549-2.686,38.715-9.358,49.641-19.297l2.083,2.291C1250.868,755.508,1224.603,762.841,1192.085,762.841z"/>
		</g>
		<g>
			<path style="fill:#FF004E;" d="M1185.222,765.68c-15.963,0-33.579-1.849-52.262-5.619
				c-68.611-13.844-142.846-51.154-209.03-105.058c-38.75-31.561-74.788-68.722-107.112-110.45
				c-35.794-46.209-67.287-98.39-93.604-155.091c-30.268-65.217-51.597-108.965-71.052-139.588
				c-20.596-32.42-38.626-49.097-58.458-54.07c-19.48-4.885-42.413,1.229-74.363,19.824
				c-30.842,17.951-69.809,47.255-119.144,84.357C320.087,360.23,210.374,442.74,51.433,541.102
				C-59.67,609.947-148.673,644.493-214.54,644.494c-30.273,0.001-55.655-7.296-76.055-21.913
				c-21.201-15.191-36.886-38.397-46.621-68.972c-7.752-24.35-11.769-53.413-11.939-86.381
				c-0.288-56.043,10.813-104.679,10.925-105.164l3.017,0.698c-0.111,0.482-11.14,48.817-10.846,104.51
				c0.173,32.643,4.144,61.385,11.803,85.428c9.529,29.912,24.827,52.578,45.468,67.366c19.771,14.165,44.694,21.272,74.404,21.273
				c14.052,0,29.17-1.589,45.331-4.773c58.901-11.605,132.535-44.61,218.855-98.098c158.822-98.289,268.471-180.75,348.533-240.96
				c49.415-37.163,88.448-66.516,119.447-84.558c32.704-19.033,56.352-25.248,76.674-20.151
				c41.907,10.51,72.271,67.599,131.566,195.358c26.218,56.491,57.59,108.473,93.242,154.499
				c32.179,41.542,68.051,78.533,106.62,109.945c65.802,53.593,139.559,90.678,207.687,104.423
				c53.264,10.747,97.56,5.793,118.496-13.25l2.083,2.291C1239.953,758.981,1215.589,765.679,1185.222,765.68z"/>
		</g>
		<g>
			<path style="fill:#FF004E;" d="M1178.249,768.604c-14.883,0-31.354-1.692-48.863-5.141
				c-68.52-13.497-143.458-50.722-211.011-104.818c-39.589-31.703-76.442-68.981-109.536-110.8
				c-36.745-46.433-69.068-98.779-96.07-155.584c-58.956-124.025-88.916-179.381-128.371-188.967
				c-18.871-4.585-40.995,1.447-71.729,19.559c-29.676,17.488-67.109,45.966-114.501,82.022
				C317.441,366.29,206.883,450.401,43.451,551.493c-109.988,68.12-197.948,102.304-262.837,102.309
				c-29.873,0.003-54.846-7.239-74.847-21.749c-21.089-15.299-36.508-38.784-45.828-69.804
				c-7.421-24.699-11.013-54.216-10.678-87.728c0.569-56.97,12.476-106.486,12.596-106.98l3.009,0.733
				c-0.12,0.491-11.951,49.712-12.51,106.336c-0.327,33.19,3.225,62.386,10.558,86.778c9.122,30.342,24.152,53.274,44.675,68.161
				c28.533,20.697,68.208,26.207,117.917,16.375c58.096-11.49,130.876-44.147,216.316-97.063
				c163.305-101.014,273.794-185.073,354.469-246.45c47.474-36.117,84.971-64.644,114.804-82.225
				c31.482-18.552,54.313-24.69,74.032-19.9c40.752,9.901,71.041,65.696,130.437,190.647
				c26.902,56.594,59.101,108.74,95.701,154.991c32.949,41.636,69.637,78.748,109.043,110.305
				c67.172,53.79,141.635,90.795,209.674,104.197c49.764,9.802,90.82,5.334,109.826-11.954l2.083,2.291
				C1228.975,762.511,1206.477,768.603,1178.249,768.604z"/>
		</g>
		<g>
			<path style="fill:#FF004E;" d="M1171.756,771.733c-13.823,0-29.263-1.577-45.921-4.776
				c-123.367-23.698-308.307-135.315-423.513-371.895c-59.035-121.229-88.911-175.3-127.242-184.304
				c-18.279-4.293-39.611,1.657-69.161,19.297c-28.538,17.036-64.473,44.707-109.969,79.74
				c-81.257,62.569-192.541,148.259-360.482,252.089c-108.898,67.41-195.816,101.236-259.746,101.237
				c-29.466,0.001-54.044-7.184-73.646-21.577c-20.979-15.404-36.128-39.168-45.029-70.632c-7.085-25.05-10.248-55.021-9.4-89.082
				c1.441-57.902,14.167-108.309,14.295-108.811l3,0.767c-0.127,0.499-12.776,50.617-14.201,108.179
				c-0.835,33.74,2.292,63.393,9.294,88.135c8.71,30.772,23.471,53.971,43.876,68.951c19.105,14.026,43.118,21.029,71.929,21.03
				c63.206,0.003,149.533-33.688,257.998-100.83C201.645,455.505,312.858,369.87,394.061,307.342
				c45.577-35.095,81.577-62.815,110.272-79.945c30.293-18.085,52.331-24.145,71.456-19.653
				c19.731,4.635,37.753,20.772,58.437,52.325c18.977,28.951,39.552,69.302,70.881,133.637
				c114.705,235.552,298.648,346.646,421.313,370.209c46.175,8.87,83.981,4.852,101.133-10.75l2.083,2.291
				C1217.814,766.208,1197.624,771.732,1171.756,771.733z"/>
		</g>
		<g>
			<path style="fill:#FF004E;" d="M1164.472,774.822c-12.679,0-26.871-1.414-42.208-4.284
				c-31.031-5.805-65.702-17.468-100.265-33.725c-38.987-18.338-77.422-42.108-114.239-70.649
				c-41.331-32.041-79.887-69.6-114.596-111.633c-38.761-46.939-72.839-99.65-101.289-156.669
				c-26.488-53.088-50.075-99.526-70.496-130.171c-20.026-30.052-37.181-45.318-55.623-49.497
				c-17.707-4.011-38.263,1.861-66.658,19.04c-27.429,16.596-61.904,43.478-105.551,77.511
				c-81.702,63.707-193.597,150.957-366.061,257.531C-80.325,638.979-166.224,672.45-229.21,672.453
				c-29.063,0.001-53.242-7.123-72.455-21.397c-20.869-15.504-35.748-39.545-44.222-71.456c-6.746-25.401-9.472-55.83-8.105-90.444
				c2.325-58.841,15.884-110.148,16.02-110.659l2.992,0.8c-0.136,0.508-13.615,51.531-15.92,110.038
				c-1.351,34.294,1.345,64.406,8.013,89.5c8.292,31.204,22.783,54.667,43.071,69.739c18.713,13.902,42.322,20.841,70.726,20.842
				c62.259,0.001,147.567-33.336,254.947-99.772C198.18,463.157,309.997,375.966,391.643,312.303
				c43.727-34.097,78.266-61.028,105.852-77.719c29.134-17.627,50.397-23.614,68.945-19.41
				c40.662,9.215,71.925,68.506,128.206,181.306c28.344,56.809,62.294,109.322,100.905,156.079
				c34.564,41.857,72.956,79.256,114.105,111.158c69.041,53.523,146.741,91.348,213.177,103.778
				c43.153,8.074,76.851,4.562,92.458-9.634l2.083,2.291C1206.722,769.842,1188.264,774.822,1164.472,774.822z"/>
		</g>
		<g>
			<path style="fill:#FF004E;" d="M1157.035,778.002c-11.521,0-24.436-1.253-38.411-3.797
				c-66.326-12.071-145.034-50.042-215.94-104.178c-42.229-32.24-81.666-69.961-117.219-112.116
				c-39.823-47.219-74.826-100.126-104.034-157.249c-55.893-109.308-86.837-166.736-125.007-175.062
				c-17.142-3.74-36.95,2.055-64.222,18.787c-26.35,16.166-59.402,42.278-101.247,75.336
				c-77.432,61.174-194.448,153.62-371.451,262.943c-106.74,66.007-191.631,99.127-253.689,99.129
				c-28.66,0.001-52.446-7.062-71.273-21.211c-20.76-15.601-35.365-39.918-43.408-72.276c-6.402-25.752-8.687-56.642-6.791-91.812
				c3.222-59.788,17.628-112.002,17.773-112.522l2.983,0.832c-0.144,0.518-14.469,52.453-17.667,111.912
				c-1.875,34.853,0.384,65.427,6.714,90.872c7.869,31.636,22.087,55.364,42.259,70.522c18.327,13.772,41.539,20.646,69.534,20.647
				c61.328,0.002,145.628-32.986,251.939-98.727c176.851-109.23,293.783-201.609,371.159-262.738
				c41.925-33.122,75.04-59.284,101.547-75.545c28.007-17.182,48.516-23.094,66.501-19.173
				c39.537,8.623,70.773,66.512,127.104,176.677c29.102,56.914,63.973,109.622,103.645,156.662
				c35.407,41.983,74.681,79.548,116.73,111.651c70.531,53.849,148.755,91.607,214.617,103.593
				c39.396,7.17,69.961,4.034,83.855-8.603l2.084,2.291C1195.564,773.535,1178.783,778.002,1157.035,778.002z"/>
		</g>
		<g>
			<path style="fill:#FF004E;" d="M1149.891,781.357c-10.403,0-22.152-1.128-35.038-3.405
				c-31.007-5.482-114.235-26.589-217.115-104.004c-43.138-32.461-83.475-70.359-119.888-112.643
				c-40.919-47.517-76.873-100.622-106.864-157.841c-55.918-106.688-86.825-162.722-123.903-170.485
				c-16.596-3.473-35.671,2.243-61.851,18.538c-25.3,15.747-56.966,41.107-97.056,73.214
				c-77.69,62.22-195.097,156.247-376.651,268.327c-105.674,65.313-189.578,98.088-250.724,98.093
				c-28.262,0.002-51.652-6.996-70.102-21.018c-20.652-15.695-34.981-40.287-42.588-73.092c-6.054-26.104-7.89-57.457-5.459-93.187
				c4.133-60.739,19.399-113.871,19.552-114.4l2.974,0.863c-0.153,0.527-15.336,53.384-19.44,113.8
				c-2.406,35.415-0.591,66.453,5.396,92.251c7.442,32.071,21.385,56.06,41.442,71.302c17.945,13.637,40.766,20.444,68.352,20.446
				c60.413,0.003,143.717-32.639,248.971-97.692c181.394-111.981,298.712-205.937,376.344-268.109
				c40.17-32.171,71.9-57.582,97.356-73.426c26.911-16.749,46.689-22.59,64.122-18.939c18.391,3.85,35.574,18.589,55.716,47.788
				c19.872,28.808,42.621,71.488,70.296,124.29c29.881,57.01,65.702,109.92,106.468,157.258
				c36.269,42.116,76.442,79.862,119.404,112.19c102.345,77.012,185.005,97.986,215.792,103.429
				c35.636,6.3,63.112,3.511,75.384-7.652l2.083,2.291C1184.255,777.368,1169.457,781.357,1149.891,781.357z"/>
		</g>
		<g>
			<path style="fill:#FF004E;" d="M1142.055,784.711c-9.252,0-19.701-0.973-31.168-2.939c-29.359-5.034-63.595-16.305-99.006-32.594
				c-40.086-18.439-80.116-42.416-118.979-71.265C848.846,645.209,807.6,607.119,770.31,564.7
				c-42.047-47.829-78.978-101.134-109.77-158.434c-27.709-51.563-50.45-93.206-69.897-120.892
				c-19.474-27.723-35.792-41.616-52.911-45.046c-16.061-3.218-34.427,2.424-59.548,18.293
				c-24.28,15.339-54.598,39.966-92.983,71.147C307.334,393.02,189.659,488.608,3.54,603.449
				c-153.005,94.518-259.573,120.172-316.741,76.248c-20.544-15.784-34.595-40.649-41.76-73.904
				c-5.701-26.458-7.084-58.275-4.109-94.569c5.057-61.698,21.197-115.754,21.359-116.293l2.965,0.894
				c-0.161,0.536-16.217,54.324-21.242,115.704c-2.945,35.981-1.579,67.485,4.06,93.638c7.009,32.505,20.674,56.756,40.616,72.076
				c17.572,13.5,39.999,20.239,67.181,20.24c59.514,0.002,141.841-32.299,246.045-96.669
				c185.948-114.736,303.529-210.248,381.335-273.451c38.465-31.245,68.846-55.924,93.281-71.361
				c25.846-16.328,44.909-22.099,61.81-18.711c37.463,7.506,66.979,59.674,124.928,167.509
				c30.68,57.093,67.477,110.203,109.368,157.855c37.147,42.256,78.231,80.197,122.112,112.771
				c38.691,28.722,78.536,52.589,118.427,70.939c35.17,16.178,69.139,27.367,98.236,32.355c31.9,5.469,56.36,3,67.106-6.774
				l2.083,2.291C1172.975,781.172,1159.695,784.71,1142.055,784.711z"/>
		</g>
		<g>
			<path style="fill:#FF004E;" d="M1134.021,788.157c-8.127,0-17.299-0.827-27.363-2.497
				c-62.314-10.345-143.999-49.132-218.509-103.753c-67.125-49.208-162.915-136.488-238.055-272.839
				c-57.473-104.292-86.656-154.721-121.721-161.423c-32.941-6.298-73.218,26.909-146.338,87.187
				C304.072,399.104,186.252,496.233-4.441,613.84c-103.585,63.955-185.544,96.048-244.915,96.053
				c-27.464,0.002-50.084-6.862-67.795-20.615c-20.437-15.87-34.207-41.007-40.926-74.711c-5.345-26.811-6.267-59.096-2.742-95.956
				c5.994-62.662,23.022-117.652,23.193-118.2l2.956,0.924c-0.171,0.545-17.113,55.271-23.071,117.621
				c-3.492,36.55-2.582,68.524,2.706,95.031c6.571,32.941,19.957,57.451,39.785,72.847c17.203,13.359,39.244,20.028,66.023,20.029
				c58.63,0.002,139.991-31.96,243.158-95.658c190.513-117.495,308.235-214.544,386.134-278.763
				c36.807-30.343,65.879-54.31,89.323-69.351c24.811-15.918,43.181-21.619,59.565-18.489
				c36.433,6.963,65.905,57.818,123.853,162.97c74.868,135.856,170.299,222.812,237.174,271.836
				c74.136,54.348,155.327,92.926,217.185,103.196c28.649,4.756,49.635,2.638,59.092-5.963l2.083,2.291
				C1161.627,785.039,1149.798,788.156,1134.021,788.157z"/>
		</g>
		<g>
			<path style="fill:#FF004E;" d="M1126.107,791.747c-7.072,0-15.098-0.71-24.006-2.139c-27.62-4.432-61.134-15.431-96.921-31.808
				c-40.586-18.573-81.54-42.759-121.726-71.887c-68.701-49.796-166.766-137.762-243.803-274.044
				c-57.447-101.627-86.574-150.752-120.644-156.939c-31.874-5.791-70.4,26.455-140.328,84.995
				c-77.98,65.28-195.824,163.932-391.102,284.307c-102.563,63.291-183.563,95.049-242.069,95.05
				c-27.064,0.001-49.312-6.794-66.66-20.407c-20.331-15.954-33.817-41.36-40.084-75.515c-4.984-27.165-5.441-59.919-1.356-97.35
				c6.944-63.633,24.873-119.562,25.053-120.12l2.947,0.952c-0.18,0.555-18.022,56.226-24.926,119.552
				c-4.047,37.124-3.599,69.567,1.334,96.43c6.128,33.378,19.232,58.145,38.947,73.615c16.84,13.214,38.504,19.811,64.879,19.813
				c57.762,0.004,138.165-31.624,240.311-94.657C181.038,501.338,298.779,402.772,376.69,337.55
				c35.198-29.466,63-52.739,85.483-67.396c23.809-15.52,41.51-21.156,57.387-18.271c35.438,6.436,64.857,55.983,122.787,158.462
				C719.11,546.141,816.82,633.79,885.271,683.406c40.02,29.008,80.797,53.091,121.197,71.579
				c35.537,16.262,68.776,27.178,96.123,31.566c25.036,4.016,43.294,2.166,51.408-5.214l2.083,2.291
				C1150.155,789.018,1139.966,791.747,1126.107,791.747z"/>
		</g>
		<g>
			<path style="fill:#FF004E;" d="M1117.594,795.367c-6.037,0-12.874-0.583-20.448-1.755
				c-45.532-7.048-126.807-37.99-218.366-103.695c-70.277-50.433-170.623-139.124-249.572-275.246
				c-57.403-98.971-86.464-146.798-119.575-152.488c-30.85-5.299-67.67,26.013-134.506,82.863
				C297.21,411.321,179.464,511.477-20.406,634.622c-101.547,62.631-181.606,94.057-239.261,94.058
				c-26.671,0.001-48.545-6.724-65.538-20.195c-20.225-16.032-33.425-41.708-39.234-76.314c-4.62-27.52-4.604-60.744,0.047-98.748
				c7.906-64.609,26.75-121.487,26.94-122.054l2.937,0.981c-0.189,0.564-18.945,57.189-26.809,121.496
				c-4.61,37.7-4.629,70.616-0.057,97.835c5.68,33.815,18.499,58.84,38.101,74.378c16.486,13.068,37.77,19.591,63.747,19.593
				c56.907,0.004,136.372-31.294,237.503-93.667c199.668-123.021,317.306-223.085,395.15-289.299
				c33.638-28.613,60.208-51.213,81.76-65.497c22.839-15.136,39.887-20.703,55.277-18.06c16.938,2.911,32.576,15.45,52.289,41.929
				c18.688,25.102,40.569,62.278,69.44,112.057c78.674,135.647,178.668,224.028,248.699,274.284
				c59.743,42.873,148.132,92.485,217.035,103.151c21.573,3.34,37.245,1.734,44.122-4.521l2.084,2.291
				C1138.682,792.999,1129.765,795.367,1117.594,795.367z"/>
		</g>
		<g>
			<path style="fill:#FF004E;" d="M1108.844,799.077c-5.069,0-10.79-0.468-17.115-1.411c-24.964-3.72-58.232-14.746-93.675-31.047
				c-40.267-18.521-83.134-43.667-123.966-72.721c-71.844-51.12-174.46-140.574-255.324-276.425
				c-29.766-50.007-50.651-84.593-69.015-108.754c-19.018-25.022-33.822-36.78-49.501-39.317
				c-29.872-4.834-65.028,25.582-128.869,80.794c-77.771,67.259-195.299,168.901-399.766,294.818
				c-100.537,61.975-179.674,93.073-236.492,93.077c-26.284,0.002-47.783-6.651-64.43-19.979
				c-20.119-16.108-33.031-42.052-38.377-77.109c-4.25-27.875-3.756-61.571,1.468-100.152c8.882-65.59,28.655-123.424,28.853-124
				l2.928,1.009c-0.198,0.574-19.882,58.16-28.719,123.453c-5.181,38.279-5.673,71.671-1.466,99.247
				c5.227,34.254,17.76,59.534,37.249,75.137c16.135,12.918,37.05,19.368,62.629,19.37c56.068,0.005,134.602-30.965,234.732-92.689
				c204.255-125.786,321.669-227.33,399.365-294.523c32.129-27.786,57.506-49.732,78.157-63.654
				c21.898-14.762,38.315-20.269,53.233-17.855c33.625,5.441,61.297,49.778,120.682,149.544
				c80.588,135.387,182.857,224.538,254.459,275.486c40.677,28.943,83.37,53.99,123.465,72.431
				c35.184,16.183,68.154,27.121,92.837,30.798c18.304,2.727,31.55,1.35,37.298-3.878l2.083,2.291
				C1127.145,797.039,1119.416,799.077,1108.844,799.077z"/>
		</g>
		<g>
			<path style="fill:#FF004E;" d="M1099.843,802.875c-4.175,0-8.871-0.368-14.046-1.108
				c-40.126-5.74-120.891-36.403-216.452-103.927c-73.393-51.861-178.255-142.113-261.025-277.564
				c-58.788-96.204-86.1-138.937-117.466-143.688c-28.886-4.376-62.47,25.16-123.419,78.787
				c-77.547,68.231-194.737,171.342-403.805,300.031c-99.542,61.329-177.765,92.103-233.76,92.107
				c-25.896,0.002-47.031-6.578-63.336-19.76c-20.014-16.181-32.635-42.39-37.512-77.9c-3.878-28.231-2.9-62.401,2.906-101.562
				c9.871-66.577,30.585-125.373,30.793-125.959l2.918,1.036c-0.207,0.584-20.832,59.137-30.655,125.423
				c-5.759,38.862-6.732,72.73-2.892,100.663c4.769,34.693,17.012,60.227,36.39,75.892c15.794,12.768,36.338,19.142,61.526,19.144
				c55.241,0.004,132.863-30.643,231.998-91.721c208.844-128.55,325.915-231.557,403.384-299.718
				c61.646-54.24,95.593-84.119,125.928-79.524c32.734,4.959,60.335,48.078,119.644,145.135
				c82.495,135,187.015,224.957,260.17,276.65c95.11,67.206,175.318,97.699,215.103,103.391c15.258,2.182,26.264,1.017,30.989-3.281
				l2.084,2.291C1115.542,801.138,1108.919,802.875,1099.843,802.875z"/>
		</g>
		<g>
			<path style="fill:#FF004E;" d="M1090.775,806.783c-3.396,0-7.221-0.291-11.469-0.873
				c-41.155-5.638-123.53-40.041-214.792-104.187c-74.913-52.656-181.982-143.741-266.636-278.644
				c-58.682-93.516-85.912-135.042-116.424-139.341c-27.954-3.936-60.002,24.753-118.155,76.844
				c-38.276,34.286-85.913,76.956-151.765,128.451C133.505,550.048,49.804,607.868-44.352,665.795
				c-144.117,88.745-242.804,112.839-293.321,71.609c-19.91-16.249-32.238-42.724-36.641-78.687
				c-3.5-28.587-2.033-63.233,4.363-102.977c10.872-67.568,32.542-127.335,32.759-127.93l2.908,1.062
				c-0.217,0.593-21.796,60.121-32.618,127.404c-6.344,39.448-7.803,73.794-4.336,102.086c4.306,35.133,16.258,60.919,35.524,76.643
				c49.384,40.304,146.866,16.13,289.738-71.848c94.057-57.867,177.664-115.622,255.6-176.566
				c65.771-51.431,113.365-94.063,151.607-128.318c58.843-52.709,91.252-81.746,120.653-77.604
				c31.88,4.491,59.402,46.399,118.615,140.761c84.379,134.467,191.113,225.265,265.794,277.756
				c65.452,46.006,156.831,95.898,213.431,103.653c15.974,2.189,22.544-0.274,25.24-2.726l2.084,2.291
				C1103.846,805.32,1098.392,806.782,1090.775,806.783z"/>
		</g>
		<g>
			<path style="fill:#FF004E;" d="M1081.224,810.745c-2.681,0-5.681-0.217-8.999-0.651c-20.573-2.691-51.313-13.382-86.555-30.103
				c-40.151-19.05-83.76-44.798-126.112-74.46c-76.398-53.507-185.623-145.458-272.123-279.651
				c-58.558-90.844-85.697-131.17-115.393-135.029c-27.065-3.523-57.622,24.358-113.078,74.965
				c-72.194,65.881-193.026,176.146-411.298,310.37c-97.58,60.055-174.014,90.191-228.406,90.197
				c-25.133,0.002-45.549-6.429-61.19-19.314c-19.806-16.316-31.838-43.053-35.762-79.469c-3.119-28.943-1.156-64.067,5.836-104.396
				c11.887-68.565,34.524-129.308,34.751-129.913l2.899,1.088c-0.226,0.603-22.773,61.113-34.607,129.397
				c-6.937,40.036-8.889,74.863-5.798,103.513c3.837,35.573,15.495,61.611,34.651,77.39c15.127,12.461,34.951,18.682,59.363,18.684
				c53.631,0.005,129.458-30.006,226.641-89.816c218.023-134.071,338.72-244.212,410.833-310.019
				c56.143-51.233,87.078-79.452,115.565-75.749c31.063,4.038,58.499,44.741,117.596,136.423
				c86.228,133.771,195.126,225.444,271.297,278.792c42.211,29.564,85.665,55.221,125.662,74.198
				c34.958,16.586,65.369,27.18,85.63,29.831c12.749,1.668,17.958-0.283,20.08-2.213l2.084,2.291
				C1092.125,809.527,1087.576,810.745,1081.224,810.745z"/>
		</g>
		<g>
			<path style="fill:#FF004E;" d="M1071.403,814.789c-2.059,0-4.349-0.157-6.866-0.47c-35.042-4.362-115.734-39.102-210.091-105.067
				c-77.839-54.417-189.161-147.266-277.453-280.568c-58.412-88.187-85.455-127.32-114.37-130.756
				c-26.209-3.109-55.328,23.977-108.188,73.154c-71.766,66.765-191.881,178.51-414.751,315.495
				c-96.622,59.433-172.171,89.256-225.782,89.258c-24.751,0.001-44.823-6.355-60.14-19.088
				c-19.702-16.378-31.436-43.377-34.876-80.247c-2.733-29.3-0.268-64.903,7.327-105.82
				c12.913-69.566,36.531-131.293,36.768-131.908l2.889,1.113c-0.236,0.613-23.764,62.11-36.621,131.402
				c-7.539,40.628-9.988,75.936-7.278,104.945c3.363,36.014,14.726,62.302,33.771,78.133c14.806,12.307,34.27,18.451,58.304,18.451
				c52.845,0.001,127.8-29.696,224.016-88.879C160.67,547.116,280.644,435.502,352.326,368.815
				c53.538-49.808,83.05-77.25,110.663-73.961c30.282,3.597,57.626,43.104,116.586,132.12
				c88.025,132.897,199.027,225.477,276.647,279.74c93.924,65.663,174.023,100.215,208.699,104.532
				c9.897,1.233,13.907-0.267,15.529-1.741l2.083,2.291C1080.342,813.789,1076.611,814.789,1071.403,814.789z"/>
		</g>
		<g>
			<path style="fill:#FF004E;" d="M1061.417,818.923c-1.552,0-3.276-0.113-5.177-0.337c-33.4-3.942-115.259-41.52-207.089-105.713
				c-79.234-55.388-192.579-149.166-282.599-281.385c-58.245-85.548-85.182-123.497-113.356-126.52
				c-25.375-2.722-53.12,23.607-103.485,71.409c-71.267,67.641-190.547,180.852-418.008,320.592
				C-208.1,782.916-303.08,806.288-350.596,766.437c-19.599-16.437-31.032-43.696-33.982-81.02
				c-2.344-29.657,0.628-65.74,8.835-107.248c13.952-70.572,38.565-133.288,38.812-133.914l2.88,1.138
				c-0.246,0.623-24.768,63.114-38.662,133.418c-8.147,41.222-11.1,77.014-8.776,106.382c2.885,36.455,13.949,62.992,32.884,78.872
				c14.489,12.151,33.605,18.217,57.261,18.218c52.073,0.002,126.162-29.387,221.425-87.952
				c227.185-139.571,346.318-252.642,417.498-320.2c51.032-48.436,79.135-75.123,105.947-72.242
				c29.54,3.169,56.783,41.487,115.586,127.856c89.755,131.83,202.793,225.35,281.814,280.59
				c102.158,71.413,178.971,102.024,205.678,105.176c7.815,0.921,10.614-0.425,11.587-1.31l2.083,2.291
				C1068.486,818.118,1065.567,818.923,1061.417,818.923z"/>
		</g>
		<g>
			<path style="fill:#FF004E;" d="M1051.034,823.121c-1.116,0-2.345-0.075-3.69-0.225c-29.733-3.313-111.227-41.769-203.693-106.512
				C763.07,659.962,647.774,565.222,556.11,434.292c-58.056-82.927-84.882-119.7-112.352-122.323
				c-24.568-2.347-51.004,23.256-98.968,69.734C274.091,450.211,155.762,564.874-76.28,707.36
				c-138.386,85.029-232.163,108.168-278.724,68.778c-19.496-16.493-30.626-44.011-33.082-81.789
				c-1.95-30.014,1.535-66.58,10.359-108.681c15.004-71.582,40.623-135.295,40.88-135.93l2.871,1.161
				c-0.256,0.633-25.784,64.125-40.729,135.444c-8.763,41.819-12.225,78.096-10.29,107.824
				c2.402,36.898,13.165,63.682,31.991,79.608c14.177,11.993,32.954,17.98,56.233,17.982c51.314,0.005,124.542-29.077,218.87-87.035
				C153.85,562.413,272.027,447.899,342.635,379.478c48.626-47.12,75.425-73.084,101.417-70.592
				c28.836,2.753,55.971,39.89,114.595,123.63c91.404,130.56,206.403,225.052,286.779,281.331
				c103.239,72.287,178.85,103.363,202.26,105.971c5.604,0.625,7.571-0.31,8.245-0.923l2.084,2.291
				C1056.593,822.481,1054.293,823.121,1051.034,823.121z"/>
		</g>
		<g>
			<path style="fill:#FF004E;" d="M1040.386,827.394c-0.769,0-1.607-0.048-2.515-0.143
				c-22.912-2.398-100.092-37.327-199.943-107.474c-81.88-57.522-199.05-153.257-292.257-282.682
				c-57.848-80.326-84.553-115.933-111.358-118.166c-23.808-1.985-48.971,22.918-94.635,68.128
				c-70.065,69.37-187.33,185.473-423.939,330.694c-93.788,57.595-166.774,86.496-218.118,86.499
				c-23.644,0.001-42.693-6.126-57.08-18.402c-19.393-16.546-30.217-44.321-32.173-82.555c-1.553-30.372,2.45-67.421,11.901-110.118
				c16.069-72.597,42.707-137.311,42.974-137.957l2.861,1.185c-0.266,0.643-26.813,65.142-42.82,137.48
				c-9.386,42.418-13.363,79.182-11.822,109.27c1.913,37.341,12.373,64.37,31.091,80.34
				c44.493,37.961,135.863,14.954,271.567-68.382c236.304-145.034,353.411-260.98,423.38-330.255
				c46.315-45.856,71.813-71.114,97.071-69.014c28.17,2.347,55.188,38.314,113.614,119.443
				c92.955,129.074,209.84,224.573,291.525,281.958c54.79,38.49,98.825,63.47,126.118,77.647
				c32.77,17.023,59.824,27.969,72.367,29.281c3.922,0.409,5.138-0.27,5.48-0.581l2.083,2.291
				C1044.644,826.893,1042.876,827.394,1040.386,827.394z"/>
		</g>
		<g>
			<path style="fill:#FF004E;" d="M1029.516,831.742c-0.511,0-1.064-0.029-1.663-0.088c-20.46-2.001-99.915-40.855-195.883-108.604
				C748.832,664.357,629.863,567.591,535.23,439.9c-57.619-77.746-84.195-112.197-110.374-114.051
				c-23.104-1.639-47.029,22.598-90.486,66.595c-69.363,70.223-185.455,187.755-426.615,335.699
				c-92.865,56.997-165.018,85.597-215.631,85.599c-23.282,0.001-42.002-6.049-56.091-18.171
				c-19.29-16.596-29.807-44.628-31.258-83.315c-1.152-30.73,3.376-68.264,13.459-111.559
				c17.145-73.616,44.815-139.339,45.093-139.994l2.852,1.207c-0.277,0.653-27.856,66.164-44.938,139.527
				c-10.017,43.02-14.515,80.272-13.371,110.721c1.419,37.783,11.574,65.058,30.183,81.067
				c13.574,11.678,31.681,17.508,54.224,17.51c49.833,0.004,121.384-28.475,213.858-85.231
				c240.839-147.748,356.766-265.112,426.031-335.236c44.101-44.65,68.406-69.239,92.907-67.508
				c27.543,1.951,54.437,36.757,112.643,115.296c94.389,127.361,213.085,223.903,296.038,282.464
				c95.531,67.441,174.28,106.086,194.398,108.053c2.586,0.252,3.198-0.231,3.26-0.286l2.083,2.291
				C1032.635,831.361,1031.35,831.742,1029.516,831.742z"/>
		</g>
		<g>
			<path style="fill:#FF004E;" d="M1018.334,836.156c-0.314,0-0.648-0.017-1.005-0.049c-17.646-1.601-99.057-44.188-191.557-109.908
				c-84.363-59.938-205.062-157.777-300.982-283.494c-57.368-75.189-83.809-108.493-109.399-109.979
				c-22.387-1.306-45.172,22.297-86.519,65.135c-33.513,34.721-79.411,82.273-147.595,139.926
				C100.936,605.719,6.224,673.261-100.226,738.533c-70.823,43.444-129.958,70.491-175.761,80.39
				c-40.811,8.82-71.943,4.237-92.532-13.621c-19.188-16.643-29.395-44.929-30.336-84.073
				c-0.747-31.088,4.311-69.108,15.034-113.004c18.233-74.639,46.948-141.376,47.236-142.041l2.842,1.23
				c-0.287,0.663-28.911,67.191-47.079,141.582c-10.654,43.624-15.68,81.365-14.937,112.175
				c0.922,38.227,10.769,65.745,29.269,81.791c13.284,11.521,31.059,17.273,53.243,17.273
				c49.111,0.002,119.844-28.181,211.401-84.343C4.472,670.702,99.055,603.254,179.278,535.422
				c68.064-57.551,113.899-105.039,147.366-139.712c40.834-42.305,63.833-66.132,86.974-66.132c0.652,0,1.3,0.019,1.954,0.057
				c26.953,1.564,53.715,35.218,111.681,111.192c98.635,129.275,223.26,229.048,310.44,289.984
				c43.665,30.521,88.255,58.352,125.554,78.368c41.181,22.099,54.356,24.649,55.956,23.768l2.038,2.326
				C1020.584,835.867,1019.647,836.156,1018.334,836.156z"/>
		</g>
		<g>
			<path style="fill:#FF004E;" d="M1006.917,840.638c-0.204,0-0.398-0.011-0.574-0.026c-12.082-1.009-89.042-41.24-187.009-111.387
				c-85.568-61.269-207.939-160.226-304.982-283.716c-57.096-72.656-83.395-104.825-108.435-105.949
				c-21.747-0.984-43.402,22.015-82.734,63.75c-33.007,35.024-78.211,82.992-146.568,141.506
				C95.98,613.84,0.152,682.512-108.209,748.924c-70.056,42.949-128.493,69.706-173.69,79.526
				c-40.33,8.763-71.021,4.253-91.222-13.408c-19.086-16.688-28.98-45.227-29.406-84.826c-0.339-31.446,5.255-69.954,16.625-114.452
				c19.333-75.666,49.105-143.421,49.404-144.097l2.833,1.251c-0.298,0.674-29.979,68.226-49.245,143.648
				c-11.299,44.231-16.857,82.462-16.519,113.633c0.418,38.671,9.957,66.431,28.349,82.511
				c12.998,11.363,30.452,17.036,52.278,17.037c48.4,0.003,118.321-27.887,208.977-83.465
				C-1.605,679.957,94.09,611.381,174.601,542.464c68.231-58.406,113.37-106.304,146.329-141.277
				c39.959-42.402,61.955-65.756,85.126-64.72c26.402,1.185,53.026,33.699,110.73,107.129
				c98.336,125.134,222.644,225.066,309.609,286.863c104.107,73.977,175.094,108.536,180.752,107.064
				c-0.006,0.001-0.116,0.033-0.249,0.154l2.083,2.291C1008.381,840.512,1007.594,840.638,1006.917,840.638z"/>
		</g>
		<g>
			<path style="fill:#FF004E;" d="M995.239,845.183c-0.126,0-0.229-0.008-0.298-0.013c-8.82-0.672-86.834-44.075-182.284-113.041
				c-86.771-62.696-210.772-162.828-308.744-283.816C447.11,378.166,420.962,347.12,396.434,346.35
				c-21.135-0.649-41.718,21.752-79.126,62.442c-32.477,35.326-76.956,83.706-145.448,143.076
				C90.98,621.977-5.934,691.773-116.19,759.316c-69.296,42.459-127.046,68.928-171.645,78.672
				c-39.856,8.708-70.114,4.268-89.933-13.195c-18.986-16.728-28.564-45.52-28.471-85.574c0.074-31.805,6.209-70.8,18.232-115.904
				c20.445-76.697,51.286-145.477,51.596-146.163l2.823,1.272c-0.308,0.684-31.058,69.265-51.436,145.723
				c-11.951,44.84-18.047,83.563-18.118,115.096c-0.089,39.115,9.137,67.117,27.422,83.227c12.718,11.206,29.854,16.8,51.328,16.801
				c47.701,0.002,116.823-27.597,206.584-82.595C-7.696,689.221,89.08,619.526,169.831,549.528
				C238.19,490.273,282.6,441.967,315.028,406.696c37.454-40.739,58.34-63.457,80.485-63.457c0.34,0,0.678,0.005,1.018,0.016
				c25.889,0.813,52.367,32.198,109.79,103.11c98.171,121.234,222.549,221.52,309.603,284.303
				c98.433,70.989,173.236,111.418,179.268,111.418c0.014,0,0.026,0,0.039-0.001c-0.08,0.003-0.342,0.059-0.592,0.286l2.083,2.291
				C996.229,845.11,995.626,845.183,995.239,845.183z"/>
		</g>
		<g>
			<path style="fill:#FF004E;" d="M-329.915,851.849c-21.977,0-39.573-5.777-52.548-17.298
				c-18.884-16.767-28.146-45.809-27.528-86.32c0.491-32.163,7.171-71.649,19.854-117.36
				c21.569-77.731,53.491-147.541,53.811-148.237l2.814,1.293c-0.319,0.694-32.15,70.308-53.65,147.806
				c-12.609,45.45-19.249,84.667-19.733,116.561c-0.601,39.56,8.311,67.802,26.488,83.941
				c12.443,11.048,29.273,16.564,50.395,16.566c47.015,0.005,115.341-27.307,204.222-81.736
				C-13.801,698.495,84.024,627.69,164.967,556.618c68.447-60.099,112.099-108.81,143.972-144.378
				c35.878-40.037,55.782-62.246,77.496-62.246c0.187,0,0.371,0.002,0.559,0.005c25.414,0.445,51.739,30.714,108.858,99.135
				c98.093,117.501,222.94,218.379,310.399,282.314c98.072,71.694,172.838,114.392,177.197,115.254
				c-0.154-0.029-0.643-0.023-1.068,0.364l2.084,2.291c-0.241,0.219-0.659,0.469-1.296,0.427
				c-4.582-0.314-80.463-44.094-177.422-114.869c-87.999-64.235-213.608-165.613-312.271-283.795
				c-55.02-65.905-82.532-97.603-106.535-98.023c-20.522-0.36-40.117,21.509-75.695,61.211
				c-31.925,35.626-75.648,84.417-144.235,144.639C85.934,630.133-12.034,701.043-124.172,769.707
				c-68.543,41.974-125.613,68.158-169.624,77.826C-306.903,850.412-318.955,851.849-329.915,851.849z"/>
		</g>
		<g>
			<path style="fill:#FF004E;" d="M-335.565,861.39c-21.636,0-38.929-5.702-51.639-17.071
				c-18.784-16.803-27.726-46.094-26.578-87.06c0.911-32.522,8.143-72.499,21.494-118.819c22.704-78.769,55.72-149.614,56.05-150.32
				l2.804,1.313c-0.33,0.705-33.254,71.358-55.888,149.898c-13.275,46.063-20.463,85.774-21.365,118.03
				c-1.118,40.005,7.478,68.485,25.549,84.65c12.177,10.893,28.694,16.33,49.477,16.331c46.338,0.001,113.891-27.027,201.891-80.885
				c113.847-69.677,212.688-141.583,293.776-213.72c68.497-60.936,111.363-110.053,142.661-145.917
				c34.379-39.393,53.343-61.122,74.677-61.122c0.035,0,0.069,0,0.104,0c24.922,0.083,52.618,30.966,107.937,95.207
				c98.867,114.814,225.902,217.371,315.062,283.188c96.614,71.32,170.776,116.044,171.513,116.487l-1.595,2.654
				c-0.739-0.444-75.026-45.244-171.758-116.65c-89.288-65.912-216.514-168.627-315.569-283.659
				c-54.695-63.517-82.033-94.053-105.601-94.131c-0.03,0-0.062,0-0.092,0c-19.929,0-38.561,21.35-72.345,60.062
				c-60.684,69.535-173.64,198.966-437.154,360.243c-67.798,41.494-124.196,67.397-167.628,76.988
				C-312.781,859.957-324.719,861.39-335.565,861.39z"/>
		</g>
	</g>
</g>
</svg>
